<mxfile host="app.diagrams.net" modified="2023-05-06T02:56:14.497Z" agent="Mozilla/5.0 (Windows NT 10.0; Win64; x64) AppleWebKit/537.36 (KHTML, like Gecko) Chrome/114.0.0.0 Safari/537.36 Edg/114.0.0.0" version="21.2.9" etag="YvftLly7xHvNC_2UMCK7" type="github">
  <diagram name="第 1 页" id="Lhpt9WF88qVEmdfKzY9J">
    <mxGraphModel>
      <root>
        <mxCell id="0" />
        <mxCell id="1" parent="0" />
      </root>
    </mxGraphModel>
  </diagram>
</mxfile>
